<?xml version="1.0" encoding="UTF-8"?>

<svg width="70" height="34" viewBox="0 0 461 227" xmlns="http://www.w3.org/2000/svg" xmlns:xlink="http://www.w3.org/1999/xlink"><defs><linearGradient id="b" x1="45.207%" x2="45.207%" y1="0%" y2="44.814%"><stop offset="0%" stop-color="#FFF" stop-opacity=".2"></stop><stop offset="100%" stop-color="#FFF" stop-opacity="0"></stop></linearGradient><path id="a" d="M75.514 86.473L0 43.493 75.514.513l75.514 42.98v85.96l-75.514-42.98z"></path><linearGradient id="d" x1="50%" x2="25.242%" y1="67.92%" y2="62.042%"><stop offset="0%" stop-opacity="0"></stop><stop offset="100%"></stop></linearGradient><path id="c" d="M113.271 91.696l42.98 75.514h-85.96z"></path></defs><g fill="none" fill-rule="evenodd"><path fill="none" d="M-19-13h500v250H-19z"></path><g transform="translate(309.536 .357)"><use fill="#3983FA" xlink:href="#a"></use><use fill="url(#b)" xlink:href="#a"></use></g><g transform="rotate(90 267.86 284.4)"><use fill="#0667D0" xlink:href="#c"></use><use fill="url(#d)" fill-opacity=".21" xlink:href="#c"></use></g><path fill="#233143" d="M77.051 178.868v19.228H.647v-15.062L44.26 131.12H1.76v-19.228h73.857v15.062l-43.614 51.915h45.047zm79.454 17.899c-9.092 2.61-16.555 3.11-25.257 3.11-9.656 0-18.199-1.897-25.627-5.689-7.428-3.792-13.158-9.053-17.19-15.783-4.033-6.73-6.05-14.367-6.05-22.913 0-8.439 1.99-16.05 5.97-22.833 3.979-6.783 9.444-12.07 16.395-15.863 6.95-3.792 14.723-5.688 23.319-5.688 8.383 0 15.97 1.816 22.762 5.448 6.791 3.632 12.124 8.84 15.997 15.622 3.873 6.784 5.81 14.662 5.81 23.635 0 .32-.16 2.563-.478 6.73h-64.784c1.167 5.34 3.926 9.56 8.277 12.658 4.351 3.098 9.932 4.67 16.4 4.901 3.953.142 14.305 0 24.456-2.714v19.379zm-28.281-66.752c-5.624 0-10.346 1.53-14.167 4.588-3.82 3.059-6.154 7.239-7.003 12.54h42.181c-.849-5.2-3.183-9.354-7.004-12.463-3.82-3.11-8.489-4.665-14.007-4.665zm102.197 69.363h-9.682c-10.188 0-18.067-2.617-23.638-7.851-5.57-5.235-8.356-12.926-8.356-23.074V131.12H177.36v-19.815h11.402l-.018-28.27h24.83v28.857h16.846v19.228h-16.845v35.883c0 3.632.928 6.436 2.785 8.412 1.857 1.977 4.484 3.48 7.88 3.48h6.18v20.484zm105.967-87.487l-38.68 87.166c-3.926 9.934-8.781 16.931-14.564 20.99-5.784 4.06-12.76 6.09-20.932 6.09H244.143v-20.19H261.416c3.396 0 6.155-.828 8.277-2.484 2.123-1.655 4.033-4.406 5.73-8.252l.319-.8-37.088-82.52h25.627l24.036 57.123 24.194-57.123h23.877z"></path></g></svg>